<svg width="146" height="266" xmlns="http://www.w3.org/2000/svg" xmlns:xlink="http://www.w3.org/1999/xlink" overflow="hidden"><defs><clipPath id="clip0"><rect x="568" y="227" width="146" height="266"/></clipPath></defs><g clip-path="url(#clip0)" transform="translate(-568 -227)"><path d="M3309.77 86786.5C3315.14 86791.7 3323.84 86791.7 3329.2 86786.5L3442.85 86676.8C3453.21 86667 3453.63 86650.6 3443.78 86640.2 3443.48 86639.9 3443.17 86639.6 3442.85 86639.3L3328.38 86528.8C3322.98 86523.7 3314.54 86523.6 3309.08 86528.7 3303.82 86533.5 3303.48 86541.7 3308.33 86547 3308.52 86547.2 3308.72 86547.4 3308.93 86547.6L3413.71 86648.7C3418.89 86653.6 3419.1 86661.8 3414.18 86667 3414.02 86667.1 3413.87 86667.3 3413.71 86667.4L3309.77 86767.7C3304.59 86772.6 3304.37 86780.8 3309.29 86786 3309.44 86786.2 3309.6 86786.3 3309.77 86786.5" fill-rule="evenodd" transform="matrix(1 0 0 1.00205 -2736.91 -86475.7)"/></g></svg>