<svg width="276" height="276" xmlns="http://www.w3.org/2000/svg" xmlns:xlink="http://www.w3.org/1999/xlink" overflow="hidden"><defs><clipPath id="clip0"><rect x="502" y="206" width="276" height="276"/></clipPath></defs><g clip-path="url(#clip0)" transform="translate(-502 -206)"><path d="M720.5 252 709 252 709 240.5C709 233.6 704.4 229 697.5 229 690.6 229 686 233.6 686 240.5L686 252 594 252 594 240.5C594 233.6 589.4 229 582.5 229 575.6 229 571 233.6 571 240.5L571 252 559.5 252C539.95 252 525 266.95 525 286.5L525 298 755 298 755 286.5C755 266.95 740.05 252 720.5 252ZM525 424.5C525 444.05 539.95 459 559.5 459L720.5 459C740.05 459 755 444.05 755 424.5L755 321 525 321 525 424.5ZM697.5 344C704.4 344 709 348.6 709 355.5 709 362.4 704.4 367 697.5 367 690.6 367 686 362.4 686 355.5 686 348.6 690.6 344 697.5 344ZM697.5 390C704.4 390 709 394.6 709 401.5 709 408.4 704.4 413 697.5 413 690.6 413 686 408.4 686 401.5 686 394.6 690.6 390 697.5 390ZM640 344C646.9 344 651.5 348.6 651.5 355.5 651.5 362.4 646.9 367 640 367 633.1 367 628.5 362.4 628.5 355.5 628.5 348.6 633.1 344 640 344ZM640 390C646.9 390 651.5 394.6 651.5 401.5 651.5 408.4 646.9 413 640 413 633.1 413 628.5 408.4 628.5 401.5 628.5 394.6 633.1 390 640 390ZM582.5 344C589.4 344 594 348.6 594 355.5 594 362.4 589.4 367 582.5 367 575.6 367 571 362.4 571 355.5 571 348.6 575.6 344 582.5 344ZM582.5 390C589.4 390 594 394.6 594 401.5 594 408.4 589.4 413 582.5 413 575.6 413 571 408.4 571 401.5 571 394.6 575.6 390 582.5 390Z" fill="#FFFFFF"/></g></svg>