<svg width="212" height="212" xmlns="http://www.w3.org/2000/svg" xmlns:xlink="http://www.w3.org/1999/xlink" overflow="hidden"><defs><clipPath id="clip0"><rect x="628" y="348" width="212" height="212"/></clipPath></defs><g clip-path="url(#clip0)" transform="translate(-628 -348)"><path d="M707.5 374.5 672.167 374.5C662.41 374.5 654.5 382.41 654.5 392.167L654.5 427.5C654.5 437.257 662.41 445.167 672.167 445.167L707.5 445.167C717.257 445.167 725.167 437.257 725.167 427.5L725.167 392.167C725.167 382.41 717.257 374.5 707.5 374.5ZM795.833 374.5 760.5 374.5C750.743 374.5 742.833 382.41 742.833 392.167L742.833 427.5C742.833 437.257 750.743 445.167 760.5 445.167L795.833 445.167C805.59 445.167 813.5 437.257 813.5 427.5L813.5 392.167C813.5 382.41 805.59 374.5 795.833 374.5ZM707.5 462.833 672.167 462.833C662.41 462.833 654.5 470.743 654.5 480.5L654.5 515.833C654.5 525.59 662.41 533.5 672.167 533.5L707.5 533.5C717.257 533.5 725.167 525.59 725.167 515.833L725.167 480.5C725.167 470.743 717.257 462.833 707.5 462.833ZM795.833 462.833 760.5 462.833C750.743 462.833 742.833 470.743 742.833 480.5L742.833 515.833C742.833 525.59 750.743 533.5 760.5 533.5L795.833 533.5C805.59 533.5 813.5 525.59 813.5 515.833L813.5 480.5C813.5 470.743 805.59 462.833 795.833 462.833Z" fill="#FFFFFF"/></g></svg>