<svg width="512" height="512" xmlns="http://www.w3.org/2000/svg" xmlns:xlink="http://www.w3.org/1999/xlink" overflow="hidden"><defs><clipPath id="clip0"><rect x="566" y="209" width="512" height="512"/></clipPath></defs><g clip-path="url(#clip0)" transform="translate(-566 -209)"><path d="M867.922 375 907.8 375C912.218 375 915.8 371.418 915.8 367 915.8 362.582 912.218 359 907.8 359L867.922 359C863.504 359 859.922 362.582 859.922 367 859.922 371.418 863.504 375 867.922 375ZM867.922 424 962.354 424C966.772 424 970.354 420.418 970.354 416 970.354 411.582 966.772 408 962.354 408L867.922 408C863.504 408 859.922 411.582 859.922 416 859.922 420.418 863.504 424 867.922 424ZM867.922 473 962.354 473C966.772 473 970.354 469.418 970.354 465 970.354 460.582 966.772 457 962.354 457L867.922 457C863.504 457 859.922 460.582 859.922 465 859.922 469.418 863.504 473 867.922 473ZM867.922 522 962.354 522C966.772 522 970.354 518.418 970.354 514 970.354 509.582 966.772 506 962.354 506L867.922 506C863.504 506 859.922 509.582 859.922 514 859.922 518.418 863.504 522 867.922 522ZM681.646 375 721.521 375C725.939 375 729.521 371.418 729.521 367 729.521 362.582 725.939 359 721.521 359L681.646 359C677.228 359 673.646 362.582 673.646 367 673.646 371.418 677.228 375 681.646 375ZM681.646 424 776.078 424C780.496 424 784.078 420.418 784.078 416 784.078 411.582 780.496 408 776.078 408L681.646 408C677.228 408 673.646 411.582 673.646 416 673.646 420.418 677.228 424 681.646 424ZM681.646 473 776.078 473C780.496 473 784.078 469.418 784.078 465 784.078 460.582 780.496 457 776.078 457L681.646 457C677.228 457 673.646 460.582 673.646 465 673.646 469.418 677.228 473 681.646 473ZM681.646 522 776.078 522C780.496 522 784.078 518.418 784.078 514 784.078 509.582 780.496 506 776.078 506L681.646 506C677.228 506 673.646 509.582 673.646 514 673.646 518.418 677.228 522 681.646 522Z" fill="#252525"/><path d="M1049.53 339 1017 339 1017 331.385C1017.03 309.734 999.558 292.13 977.908 292L876.49 292C871.917 292.033 867.385 292.867 863.1 294.463L829.92 306.582C824.806 308.447 819.2 308.456 814.08 306.608L780.9 294.45C776.614 292.858 772.082 292.028 767.51 292L666.092 292C644.442 292.13 626.968 309.734 627 331.385L627 339 594.467 339C589.912 339.069 586.201 342.675 586 347.226L586 629.791C586.202 634.338 589.916 637.938 594.467 638L1049.53 638C1054.08 637.938 1057.8 634.338 1058 629.791L1058 347.226C1057.8 342.675 1054.09 339.069 1049.53 339ZM868.569 309.5C871.102 308.542 873.782 308.034 876.49 308L977.908 308C990.726 308.12 1001.04 318.567 1001 331.385L1001 548.322C1001 561.1 990.688 571 977.908 571L876.49 571C871.909 571.083 867.379 571.966 863.102 573.608L830 585.9 830 323.2C831.831 322.803 833.632 322.277 835.389 321.624ZM643 331.385C642.958 318.567 653.274 308.12 666.092 308L767.51 308C770.217 308.034 772.898 308.542 775.43 309.5L808.611 321.619C810.368 322.273 812.168 322.802 814 323.2L814 585.9 780.9 573.613C776.623 571.968 772.091 571.084 767.51 571L666.092 571C653.312 571 643 561.1 643 548.322ZM1042 622 602 622 602 355 627 355 627 548.322C627.026 569.71 644.384 587.027 665.772 587.002 665.879 587.002 665.985 587.001 666.092 587L767.51 587C770.225 587.084 772.905 587.641 775.43 588.644L808.612 600.836C817.247 604.025 826.732 604.058 835.389 600.929L868.569 588.629C871.095 587.63 873.775 587.079 876.49 587L977.908 587C999.295 587.202 1016.8 570.029 1017 548.642 1017 548.535 1017 548.429 1017 548.322L1017 355 1042 355Z" fill="#252525"/></g></svg>