<svg width="183" height="183" xmlns="http://www.w3.org/2000/svg" xmlns:xlink="http://www.w3.org/1999/xlink" overflow="hidden"><defs><clipPath id="clip0"><rect x="565" y="410" width="183" height="183"/></clipPath></defs><g clip-path="url(#clip0)" transform="translate(-565 -410)"><path d="M633.625 486.25 641.25 486.25C645.461 486.25 648.875 482.836 648.875 478.625 648.875 474.414 645.461 471 641.25 471L633.625 471C629.414 471 626 474.414 626 478.625 626 482.836 629.414 486.25 633.625 486.25ZM633.625 501.5C629.414 501.5 626 504.914 626 509.125 626 513.336 629.414 516.75 633.625 516.75L679.375 516.75C683.586 516.75 687 513.336 687 509.125 687 504.914 683.586 501.5 679.375 501.5ZM717.5 478.167C717.421 477.467 717.267 476.777 717.042 476.109L717.042 475.422C716.676 474.638 716.187 473.918 715.594 473.288L715.594 473.288 669.844 427.538 669.844 427.538C669.213 426.944 668.493 426.455 667.709 426.089 667.481 426.056 667.25 426.056 667.023 426.089 666.248 425.645 665.392 425.359 664.506 425.25L618.375 425.25C605.741 425.25 595.5 435.491 595.5 448.125L595.5 554.875C595.5 567.509 605.741 577.75 618.375 577.75L694.625 577.75C707.259 577.75 717.5 567.509 717.5 554.875L717.5 478.625C717.5 478.625 717.5 478.625 717.5 478.167ZM671.75 451.251 691.499 471 679.375 471C675.164 471 671.75 467.586 671.75 463.375ZM702.25 554.875C702.25 559.086 698.836 562.5 694.625 562.5L618.375 562.5C614.164 562.5 610.75 559.086 610.75 554.875L610.75 448.125C610.75 443.914 614.164 440.5 618.375 440.5L656.5 440.5 656.5 463.375C656.5 476.009 666.741 486.25 679.375 486.25L702.25 486.25ZM679.375 532 633.625 532C629.414 532 626 535.414 626 539.625 626 543.836 629.414 547.25 633.625 547.25L679.375 547.25C683.586 547.25 687 543.836 687 539.625 687 535.414 683.586 532 679.375 532Z" fill="#252525"/></g></svg>