<svg width="244" height="244" xmlns="http://www.w3.org/2000/svg" xmlns:xlink="http://www.w3.org/1999/xlink" overflow="hidden"><defs><clipPath id="clip0"><rect x="518" y="238" width="244" height="244"/></clipPath></defs><g clip-path="url(#clip0)" transform="translate(-518 -238)"><path d="M571.375 360 708.625 360C712.836 360 716.25 356.586 716.25 352.375 716.25 348.164 712.836 344.75 708.625 344.75L571.375 344.75C567.164 344.75 563.75 348.164 563.75 352.375 563.75 356.586 567.164 360 571.375 360ZM571.375 314.25 708.625 314.25C712.836 314.25 716.25 310.836 716.25 306.625 716.25 302.414 712.836 299 708.625 299L571.375 299C567.164 299 563.75 302.414 563.75 306.625 563.75 310.836 567.164 314.25 571.375 314.25ZM571.375 405.75 708.625 405.75C712.836 405.75 716.25 402.336 716.25 398.125 716.25 393.914 712.836 390.5 708.625 390.5L571.375 390.5C567.164 390.5 563.75 393.914 563.75 398.125 563.75 402.336 567.164 405.75 571.375 405.75Z" fill="#FFFFFF"/></g></svg>