<svg width="612" height="502" xmlns="http://www.w3.org/2000/svg" xmlns:xlink="http://www.w3.org/1999/xlink" overflow="hidden"><defs><clipPath id="clip0"><rect x="334" y="109" width="612" height="502"/></clipPath></defs><g clip-path="url(#clip0)" transform="translate(-334 -109)"><path d="M55.6364 0 500.727 0C531.327 0 556.364 25.0364 556.364 55.6364L556.364 389.455C556.364 420.055 531.327 445.091 500.727 445.091L55.6364 445.091C25.0364 445.091 0 420.055 0 389.455L0 55.6364C0 25.0364 25.0364 0 55.6364 0Z" stroke="#000000" stroke-width="55.6364" stroke-linecap="round" stroke-linejoin="round" fill="none" fill-rule="evenodd" transform="matrix(1 0 0 1.00254 361.818 136.889)"/><path d="M556.364 55.6364 278.182 250.364 0 55.6364" stroke="#000000" stroke-width="55.6364" stroke-linecap="round" stroke-linejoin="round" fill="none" fill-rule="evenodd" transform="matrix(1 0 0 1.00254 361.818 136.889)"/></g></svg>