<svg width="720" height="720" xmlns="http://www.w3.org/2000/svg" xmlns:xlink="http://www.w3.org/1999/xlink" overflow="hidden"><defs><clipPath id="clip0"><rect x="280" y="0" width="720" height="720"/></clipPath></defs><g clip-path="url(#clip0)" transform="translate(-280 0)"><path d="M915.484 490.922C908.102 490.922 900.719 490.922 893.406 490.922 874.703 490.922 856 490.922 837.367 490.922 812.828 490.922 788.289 490.922 763.75 490.922 738.508 490.922 713.195 490.922 687.953 490.922 667.492 490.922 647.031 490.922 626.57 490.922 616.094 490.922 605.547 490.852 595.07 490.922 588.461 490.992 581.57 492.117 575.945 495.703 572.781 497.742 569.969 500.133 567.297 502.734 563.359 506.602 559.422 510.398 555.484 514.266 540.016 529.312 524.617 544.359 509.148 559.406 491.289 576.773 473.5 594.141 455.641 611.508 444.883 621.984 434.195 632.391 423.438 642.867 422.734 643.57 422.031 644.273 421.328 644.906 423.719 643.078 426.039 641.25 428.43 639.422 427.516 640.125 426.672 640.617 425.688 641.039 428.5 639.844 431.312 638.648 434.055 637.523 433.281 637.805 432.648 637.945 431.875 638.086 434.969 637.664 438.133 637.242 441.227 636.82 440.242 636.961 439.258 636.891 438.273 636.82 441.367 637.242 444.531 637.664 447.625 638.086 446.641 637.875 445.727 637.594 444.812 637.242 447.625 638.438 450.438 639.633 453.18 640.758 452.477 640.406 451.914 640.055 451.281 639.633 453.672 641.461 455.992 643.289 458.383 645.117 457.609 644.484 456.906 643.781 456.273 643.008 458.102 645.398 459.93 647.719 461.758 650.109 461.336 649.477 460.984 648.844 460.633 648.141 461.828 650.953 463.023 653.766 464.148 656.508 463.867 655.734 463.656 655.031 463.516 654.188 463.938 657.281 464.359 660.445 464.781 663.539 464.219 658.828 464.641 653.836 464.641 649.055 464.641 638.297 464.641 627.539 464.641 616.711 464.641 592.102 464.641 567.562 464.641 542.953 464.641 537.328 464.641 531.703 464.641 526.008 464.641 507.023 448.539 490.852 429.484 490.852 410.008 490.852 390.531 490.852 370.984 490.852 367.258 490.852 363.461 490.992 359.734 490.57 362.828 490.992 365.992 491.414 369.086 491.836 365.992 491.414 362.969 490.57 360.016 489.445 362.828 490.641 365.641 491.836 368.383 492.961 365.289 491.625 362.406 490.008 359.664 487.898 362.055 489.727 364.375 491.555 366.766 493.383 364.375 491.484 362.266 489.375 360.367 486.984 362.195 489.375 364.023 491.695 365.852 494.086 363.812 491.414 362.125 488.531 360.789 485.367 361.984 488.18 363.18 490.992 364.305 493.734 363.18 490.781 362.336 487.828 361.914 484.664 362.336 487.758 362.758 490.922 363.18 494.016 362.617 489.164 362.898 484.102 362.898 479.18 362.898 469.477 362.898 459.773 362.898 450.141 362.898 417.867 362.898 385.523 362.898 353.25 362.898 313.734 362.898 274.289 362.898 234.773 362.898 200.883 362.898 166.922 362.898 133.031 362.898 117 362.758 101.039 362.898 85.0078 362.898 83.25 363.039 81.4922 363.18 79.7344 362.758 82.8281 362.336 85.9922 361.914 89.0859 362.336 85.9922 363.18 82.9688 364.305 80.0156 363.109 82.8281 361.914 85.6406 360.789 88.3828 362.125 85.2891 363.742 82.4062 365.852 79.6641 364.023 82.0547 362.195 84.375 360.367 86.7656 362.266 84.375 364.375 82.2656 366.766 80.3672 364.375 82.1953 362.055 84.0234 359.664 85.8516 362.336 83.8125 365.219 82.125 368.383 80.7891 365.57 81.9844 362.758 83.1797 360.016 84.3047 362.969 83.1797 365.922 82.3359 369.086 81.9141 365.992 82.3359 362.828 82.7578 359.734 83.1797 365.852 82.4766 372.18 82.8984 378.367 82.8984 391.586 82.8984 404.805 82.8984 418.023 82.8984 437.852 82.8984 457.68 82.8984 477.578 82.8984 501.766 82.8984 526.023 82.8984 550.211 82.8984 576.859 82.8984 603.578 82.8984 630.227 82.8984 657.016 82.8984 683.875 82.8984 710.664 82.8984 735.766 82.8984 760.797 82.8984 785.898 82.8984 806.922 82.8984 827.945 82.8984 849.039 82.8984 864.086 82.8984 879.203 82.8984 894.25 82.8984 901.141 82.8984 908.031 82.8984 914.922 82.8984 916.75 82.8984 918.578 82.9688 920.406 83.1797 917.312 82.7578 914.148 82.3359 911.055 81.9141 914.148 82.3359 917.172 83.1797 920.125 84.3047 917.312 83.1094 914.5 81.9141 911.758 80.7891 914.852 82.125 917.734 83.7422 920.477 85.8516 918.086 84.0234 915.766 82.1953 913.375 80.3672 915.766 82.2656 917.875 84.375 919.773 86.7656 917.945 84.375 916.117 82.0547 914.289 79.6641 916.328 82.3359 918.016 85.2188 919.352 88.3828 918.156 85.5703 916.961 82.7578 915.836 80.0156 916.961 82.9688 917.805 85.9219 918.227 89.0859 917.805 85.9922 917.383 82.8281 916.961 79.7344 917.523 84.5859 917.242 89.6484 917.242 94.5703 917.242 104.273 917.242 113.977 917.242 123.609 917.242 155.883 917.242 188.227 917.242 220.5 917.242 260.016 917.242 299.461 917.242 338.977 917.242 372.867 917.242 406.828 917.242 440.719 917.242 456.75 917.383 472.711 917.242 488.742 917.242 490.5 917.102 492.258 916.961 494.016 917.383 490.922 917.805 487.758 918.227 484.664 917.805 487.758 916.961 490.781 915.836 493.734 917.031 490.922 918.227 488.109 919.352 485.367 918.016 488.461 916.398 491.344 914.289 494.086 916.117 491.695 917.945 489.375 919.773 486.984 917.875 489.375 915.766 491.484 913.375 493.383 915.766 491.555 918.086 489.727 920.477 487.898 917.805 489.938 914.922 491.625 911.758 492.961 914.57 491.766 917.383 490.57 920.125 489.445 917.172 490.57 914.219 491.414 911.055 491.836 914.148 491.414 917.312 490.992 920.406 490.57 918.648 490.781 917.102 490.922 915.484 490.922 906.414 491.063 897.062 494.789 890.594 501.188 884.477 507.305 879.906 517.289 880.328 526.078 880.75 535.148 883.703 544.57 890.594 550.969 897.414 557.227 905.992 561.375 915.484 561.234 927.859 561.094 939.109 558 950.008 552.375 960.555 546.961 968.57 538.453 975.391 528.961 983.547 517.641 987.273 502.875 987.414 489.094 987.484 484.734 987.414 480.375 987.414 476.016 987.414 451.969 987.414 427.852 987.414 403.805 987.414 368.156 987.414 332.508 987.414 296.859 987.414 260.297 987.414 223.734 987.414 187.102 987.414 160.312 987.414 133.523 987.414 106.805 987.414 100.336 987.414 93.9375 987.414 87.4688 987.414 66.3047 979.75 44.5078 962.945 30.8672 953.805 23.4141 943.82 17.0859 932.008 14.7656 926.523 13.7109 920.898 12.8672 915.344 12.7969 914.359 12.7969 913.375 12.7969 912.391 12.7969 906.906 12.7969 901.422 12.7969 896.008 12.7969 873.648 12.7969 851.289 12.7969 828.93 12.7969 796.164 12.7969 763.398 12.7969 730.633 12.7969 693.297 12.7969 656.031 12.7969 618.695 12.7969 582.484 12.7969 546.203 12.7969 509.992 12.7969 480.461 12.7969 450.93 12.7969 421.398 12.7969 404.453 12.7969 387.508 12.7969 370.562 12.7969 362.758 12.7969 355.516 13.1484 347.641 14.8359 328.164 18.9844 309.32 33.8203 300.812 51.8203 295.68 62.7187 292.797 73.2656 292.727 85.5 292.656 100.969 292.727 116.508 292.727 131.977 292.727 163.688 292.727 195.398 292.727 227.109 292.727 264.516 292.727 301.852 292.727 339.258 292.727 371.812 292.727 404.367 292.727 436.922 292.727 453.867 292.727 470.812 292.727 487.758 292.727 513.984 306.367 540.703 330.484 552.727 342.578 558.773 354.812 561.375 368.242 561.375 375.836 561.375 383.5 561.375 391.094 561.375 403.891 561.375 416.688 561.375 429.414 561.375 417.672 549.633 406 537.961 394.258 526.219 394.258 549.984 394.258 573.82 394.258 597.586 394.258 613.266 394.258 628.875 394.258 644.555 394.258 658.617 393.062 673.102 400.938 685.688 409.234 698.906 425.125 708.539 441.086 707.203 453.039 706.219 462.953 702.141 471.672 693.984 473.078 692.648 474.484 691.242 475.891 689.906 483.484 682.523 491.008 675.141 498.602 667.828 522.438 644.555 546.344 621.352 570.18 598.078 586 582.68 602.031 567.422 617.641 551.812 617.922 551.531 618.133 551.32 618.414 551.039 610.117 554.484 601.82 557.93 593.523 561.305 604.211 561.305 614.828 561.305 625.516 561.305 651.109 561.305 676.703 561.305 702.297 561.305 733.234 561.305 764.242 561.305 795.18 561.305 822.039 561.305 848.969 561.305 875.828 561.305 888.836 561.305 901.844 561.516 914.852 561.305 915.062 561.305 915.203 561.305 915.414 561.305 924.414 561.305 933.906 557.367 940.305 551.039 946.422 544.922 950.992 534.938 950.57 526.148 950.148 517.078 947.195 507.656 940.305 501.258 933.414 494.859 924.977 490.922 915.484 490.922Z" fill="#FFFFFF"/><path d="M475.891 287.016C475.891 287.648 475.82 288.281 475.75 288.914 476.172 285.82 476.594 282.656 477.016 279.562 476.805 281.109 476.383 282.586 475.82 284.062 477.016 281.25 478.211 278.438 479.336 275.695 478.773 276.82 478.211 277.805 477.508 278.859 479.336 276.469 481.164 274.148 482.992 271.758 482.008 272.953 481.023 274.008 479.828 274.922 482.219 273.094 484.539 271.266 486.93 269.438 485.945 270.141 484.891 270.773 483.766 271.266 486.578 270.07 489.391 268.875 492.133 267.75 490.656 268.312 489.25 268.734 487.633 268.945 490.727 268.523 493.891 268.102 496.984 267.68 495.719 267.82 494.453 267.82 493.117 267.68 496.211 268.102 499.375 268.523 502.469 268.945 500.922 268.734 499.445 268.312 497.969 267.75 500.781 268.945 503.594 270.141 506.336 271.266 505.211 270.703 504.227 270.141 503.172 269.438 505.562 271.266 507.883 273.094 510.273 274.922 509.078 273.938 508.023 272.953 507.109 271.758 508.938 274.148 510.766 276.469 512.594 278.859 511.891 277.875 511.258 276.82 510.766 275.695 511.961 278.508 513.156 281.32 514.281 284.062 513.719 282.586 513.297 281.18 513.086 279.562 513.508 282.656 513.93 285.82 514.352 288.914 514.211 287.648 514.211 286.383 514.352 285.047 513.93 288.141 513.508 291.305 513.086 294.398 513.297 292.852 513.719 291.375 514.281 289.898 513.086 292.711 511.891 295.523 510.766 298.266 511.328 297.141 511.891 296.156 512.594 295.102 510.766 297.492 508.938 299.812 507.109 302.203 508.094 301.008 509.078 299.953 510.273 299.039 507.883 300.867 505.562 302.695 503.172 304.523 504.156 303.82 505.211 303.188 506.336 302.695 503.523 303.891 500.711 305.086 497.969 306.211 499.445 305.648 500.852 305.227 502.469 305.016 499.375 305.438 496.211 305.859 493.117 306.281 494.383 306.141 495.648 306.141 496.984 306.281 493.891 305.859 490.727 305.438 487.633 305.016 489.18 305.227 490.656 305.648 492.133 306.211 489.32 305.016 486.508 303.82 483.766 302.695 484.891 303.258 485.875 303.82 486.93 304.523 484.539 302.695 482.219 300.867 479.828 299.039 481.023 300.023 482.078 301.008 482.992 302.203 481.164 299.812 479.336 297.492 477.508 295.102 478.211 296.086 478.844 297.141 479.336 298.266 478.141 295.453 476.945 292.641 475.82 289.898 476.383 291.375 476.805 292.781 477.016 294.398 476.594 291.305 476.172 288.141 475.75 285.047 475.82 285.75 475.891 286.383 475.891 287.016 476.172 296.227 479.617 305.297 486.156 311.906 492.273 318.023 502.258 322.594 511.047 322.172 520.117 321.75 529.539 318.797 535.938 311.906 542.125 305.156 546.484 296.438 546.203 287.016 545.922 277.594 543.672 267.609 538.258 259.734 531.156 249.469 522.297 242.578 510.484 238.359 501.555 235.195 490.656 235.266 481.586 237.797 472.797 240.188 463.797 245.391 457.82 252.281 449.453 261.984 445.164 272.391 444.18 285.117 443.828 289.969 444.672 295.031 445.656 299.672 446.641 304.172 448.68 308.812 451 312.75 455.5 320.484 462.883 327.938 470.969 331.875 474.977 333.844 479.336 335.883 483.836 336.656 492.555 338.133 498.039 338.133 506.828 336.586 511.68 335.742 516.672 333.492 520.891 331.031 524.898 328.711 528.977 325.547 532.141 322.031 541.07 312.047 545.781 300.305 546.203 286.945 546.484 278.086 542.125 268.242 535.938 262.055 529.82 255.938 519.836 251.367 511.047 251.789 491.5 252.703 476.453 267.258 475.891 287.016ZM620.734 287.016C620.734 287.648 620.664 288.281 620.594 288.914 621.016 285.82 621.438 282.656 621.859 279.562 621.648 281.109 621.227 282.586 620.664 284.062 621.859 281.25 623.055 278.438 624.18 275.695 623.617 276.82 623.055 277.805 622.352 278.859 624.18 276.469 626.008 274.148 627.836 271.758 626.852 272.953 625.867 274.008 624.672 274.922 627.062 273.094 629.383 271.266 631.773 269.438 630.789 270.141 629.734 270.773 628.609 271.266 631.422 270.07 634.234 268.875 636.977 267.75 635.5 268.312 634.094 268.734 632.477 268.945 635.57 268.523 638.734 268.102 641.828 267.68 640.562 267.82 639.297 267.82 637.961 267.68 641.055 268.102 644.219 268.523 647.312 268.945 645.766 268.734 644.289 268.312 642.812 267.75 645.625 268.945 648.438 270.141 651.18 271.266 650.055 270.703 649.07 270.141 648.016 269.438 650.406 271.266 652.727 273.094 655.117 274.922 653.922 273.938 652.867 272.953 651.953 271.758 653.781 274.148 655.609 276.469 657.438 278.859 656.734 277.875 656.102 276.82 655.609 275.695 656.805 278.508 658 281.32 659.125 284.062 658.562 282.586 658.141 281.18 657.93 279.562 658.352 282.656 658.773 285.82 659.195 288.914 659.055 287.648 659.055 286.383 659.195 285.047 658.773 288.141 658.352 291.305 657.93 294.398 658.141 292.852 658.562 291.375 659.125 289.898 657.93 292.711 656.734 295.523 655.609 298.266 656.172 297.141 656.734 296.156 657.438 295.102 655.609 297.492 653.781 299.812 651.953 302.203 652.938 301.008 653.922 299.953 655.117 299.039 652.727 300.867 650.406 302.695 648.016 304.523 649 303.82 650.055 303.188 651.18 302.695 648.367 303.891 645.555 305.086 642.812 306.211 644.289 305.648 645.695 305.227 647.312 305.016 644.219 305.438 641.055 305.859 637.961 306.281 639.227 306.141 640.492 306.141 641.828 306.281 638.734 305.859 635.57 305.438 632.477 305.016 634.023 305.227 635.5 305.648 636.977 306.211 634.164 305.016 631.352 303.82 628.609 302.695 629.734 303.258 630.719 303.82 631.773 304.523 629.383 302.695 627.062 300.867 624.672 299.039 625.867 300.023 626.922 301.008 627.836 302.203 626.008 299.812 624.18 297.492 622.352 295.102 623.055 296.086 623.688 297.141 624.18 298.266 622.984 295.453 621.789 292.641 620.664 289.898 621.227 291.375 621.648 292.781 621.859 294.398 621.438 291.305 621.016 288.141 620.594 285.047 620.734 285.75 620.734 286.383 620.734 287.016 621.016 296.227 624.461 305.297 631 311.906 637.117 318.023 647.102 322.594 655.891 322.172 664.961 321.75 674.383 318.797 680.781 311.906 686.969 305.156 691.328 296.438 691.047 287.016 690.766 277.594 688.516 267.609 683.102 259.734 676 249.469 667.141 242.578 655.328 238.359 646.398 235.195 635.5 235.266 626.43 237.797 617.641 240.188 608.641 245.391 602.664 252.281 594.297 261.984 590.008 272.391 589.023 285.117 588.672 289.969 589.516 295.031 590.5 299.672 591.484 304.172 593.523 308.812 595.844 312.75 600.344 320.484 607.727 327.938 615.812 331.875 619.82 333.844 624.18 335.883 628.68 336.656 637.398 338.133 642.883 338.133 651.672 336.586 656.523 335.742 661.516 333.492 665.734 331.031 669.742 328.711 673.82 325.547 676.984 322.031 685.914 312.047 690.625 300.305 691.047 286.945 691.328 278.086 686.969 268.242 680.781 262.055 674.664 255.938 664.68 251.367 655.891 251.789 636.414 252.703 621.367 267.258 620.734 287.016ZM765.648 287.016C765.648 287.648 765.578 288.281 765.508 288.914 765.93 285.82 766.352 282.656 766.773 279.562 766.562 281.109 766.141 282.586 765.578 284.062 766.773 281.25 767.969 278.438 769.094 275.695 768.531 276.82 767.969 277.805 767.266 278.859 769.094 276.469 770.922 274.148 772.75 271.758 771.766 272.953 770.781 274.008 769.586 274.922 771.977 273.094 774.297 271.266 776.688 269.438 775.703 270.141 774.648 270.773 773.523 271.266 776.336 270.07 779.148 268.875 781.891 267.75 780.414 268.312 779.008 268.734 777.391 268.945 780.484 268.523 783.648 268.102 786.742 267.68 785.477 267.82 784.211 267.82 782.875 267.68 785.969 268.102 789.133 268.523 792.227 268.945 790.68 268.734 789.203 268.312 787.727 267.75 790.539 268.945 793.352 270.141 796.094 271.266 794.969 270.703 793.984 270.141 792.93 269.438 795.32 271.266 797.641 273.094 800.031 274.922 798.836 273.938 797.781 272.953 796.867 271.758 798.695 274.148 800.523 276.469 802.352 278.859 801.648 277.875 801.016 276.82 800.523 275.695 801.719 278.508 802.914 281.32 804.039 284.062 803.477 282.586 803.055 281.18 802.844 279.562 803.266 282.656 803.688 285.82 804.109 288.914 803.969 287.648 803.969 286.383 804.109 285.047 803.688 288.141 803.266 291.305 802.844 294.398 803.055 292.852 803.477 291.375 804.039 289.898 802.844 292.711 801.648 295.523 800.523 298.266 801.086 297.141 801.648 296.156 802.352 295.102 800.523 297.492 798.695 299.812 796.867 302.203 797.852 301.008 798.836 299.953 800.031 299.039 797.641 300.867 795.32 302.695 792.93 304.523 793.914 303.82 794.969 303.188 796.094 302.695 793.281 303.891 790.469 305.086 787.727 306.211 789.203 305.648 790.609 305.227 792.227 305.016 789.133 305.438 785.969 305.859 782.875 306.281 784.141 306.141 785.406 306.141 786.742 306.281 783.648 305.859 780.484 305.438 777.391 305.016 778.938 305.227 780.414 305.648 781.891 306.211 779.078 305.016 776.266 303.82 773.523 302.695 774.648 303.258 775.633 303.82 776.688 304.523 774.297 302.695 771.977 300.867 769.586 299.039 770.781 300.023 771.836 301.008 772.75 302.203 770.922 299.812 769.094 297.492 767.266 295.102 767.969 296.086 768.602 297.141 769.094 298.266 767.898 295.453 766.703 292.641 765.578 289.898 766.141 291.375 766.562 292.781 766.773 294.398 766.352 291.305 765.93 288.141 765.508 285.047 765.578 285.75 765.648 286.383 765.648 287.016 765.93 296.227 769.375 305.297 775.914 311.906 782.031 318.023 792.016 322.594 800.805 322.172 809.875 321.75 819.297 318.797 825.695 311.906 831.883 305.156 836.242 296.438 835.961 287.016 835.68 277.594 833.43 267.609 828.016 259.734 820.914 249.469 812.055 242.578 800.242 238.359 791.312 235.195 780.414 235.266 771.344 237.797 762.555 240.188 753.555 245.391 747.578 252.281 739.211 261.984 734.922 272.391 733.938 285.117 733.586 289.969 734.43 295.031 735.414 299.672 736.398 304.172 738.438 308.812 740.758 312.75 745.258 320.484 752.641 327.938 760.727 331.875 764.734 333.844 769.094 335.883 773.594 336.656 782.312 338.133 787.797 338.133 796.586 336.586 801.438 335.742 806.43 333.492 810.648 331.031 814.656 328.711 818.734 325.547 821.898 322.031 830.828 312.047 835.539 300.305 835.961 286.945 836.242 278.086 831.883 268.242 825.695 262.055 819.578 255.938 809.594 251.367 800.805 251.789 781.258 252.703 766.211 267.258 765.648 287.016Z" fill="#FFFFFF"/></g></svg>