<svg width="178" height="178" xmlns="http://www.w3.org/2000/svg" xmlns:xlink="http://www.w3.org/1999/xlink" overflow="hidden"><defs><clipPath id="clip0"><rect x="533" y="263" width="178" height="178"/></clipPath></defs><g clip-path="url(#clip0)" transform="translate(-533 -263)"><path d="M9919.12 4535.18 9919.12 4531.62C9919.12 4526.63 9910.22 4524.5 9901.85 4524.5 9893.49 4524.5 9884.59 4526.81 9884.59 4531.62L9884.59 4535.18C9884.59 4538.38 9885.83 4541.59 9888.15 4543.9L9897.05 4552.62C9897.58 4553.16 9897.76 4553.69 9897.76 4554.4L9897.76 4565.79C9897.76 4566.51 9898.11 4567.04 9898.83 4567.22L9903.99 4568.82C9904.88 4569 9905.77 4568.46 9905.77 4567.4L9905.77 4554.58C9905.77 4553.87 9906.12 4553.33 9906.48 4552.8L9915.56 4543.9C9917.87 4541.59 9919.12 4538.38 9919.12 4535.18ZM9901.85 4535C9893.31 4535 9888.68 4532.69 9888.5 4531.8L9888.5 4531.8C9888.68 4530.91 9893.31 4528.59 9901.85 4528.59 9910.4 4528.59 9914.85 4530.91 9915.2 4531.8 9914.85 4532.69 9910.4 4535 9901.85 4535Z" fill="#252525"/><path d="M9910.75 4553.33C9909.68 4553.33 9908.97 4554.05 9908.97 4555.11 9908.97 4556.18 9909.68 4556.89 9910.75 4556.89L9918.41 4556.89C9919.47 4556.89 9920.19 4556.18 9920.19 4555.11 9920.19 4554.05 9919.47 4553.33 9918.41 4553.33L9910.75 4553.33ZM9918.41 4559.39 9910.75 4559.39C9909.68 4559.39 9908.97 4560.1 9908.97 4561.17 9908.97 4562.23 9909.68 4562.95 9910.75 4562.95L9918.41 4562.95C9919.47 4562.95 9920.19 4562.23 9920.19 4561.17 9920.19 4560.1 9919.47 4559.39 9918.41 4559.39ZM9918.41 4565.26 9910.75 4565.26C9909.68 4565.26 9908.97 4565.97 9908.97 4567.04 9908.97 4568.11 9909.68 4568.82 9910.75 4568.82L9918.41 4568.82C9919.47 4568.82 9920.19 4568.11 9920.19 4567.04 9920.19 4566.15 9919.47 4565.26 9918.41 4565.26ZM622 267.45C575.364 267.45 537.45 305.364 537.45 352 537.45 398.636 575.364 436.55 622 436.55 668.636 436.55 706.55 398.636 706.55 352 706.55 305.364 668.636 267.45 622 267.45ZM652.616 356.984 607.048 387.244C603.132 389.914 597.97 387.066 597.97 382.26L597.97 321.562C597.97 316.934 603.132 314.086 607.048 316.578L652.616 347.016C656.176 349.508 656.176 354.492 652.616 356.984Z" fill="#252525"/></g></svg>