<svg width="146" height="146" xmlns="http://www.w3.org/2000/svg" xmlns:xlink="http://www.w3.org/1999/xlink" overflow="hidden"><defs><clipPath id="clip0"><rect x="567" y="287" width="146" height="146"/></clipPath></defs><g clip-path="url(#clip0)" transform="translate(-567 -287)"><path d="M667.375 318.755C667.375 333.874 655.119 346.13 640 346.13 624.881 346.13 612.625 333.874 612.625 318.755 612.625 303.636 624.881 291.38 640 291.38 655.119 291.38 667.375 303.636 667.375 318.755Z" fill="#FFFFFF"/><path d="M707.799 409.458C704.959 396.529 698.448 384.694 689.047 375.376 686.765 373.086 684.292 370.995 681.656 369.125 669.647 360.118 655.011 355.308 640 355.438 621.646 355.344 603.999 362.511 590.907 375.376 581.506 384.694 574.995 396.529 572.156 409.458 571.156 414.088 572.314 418.923 575.304 422.598 578.4 426.351 583.031 428.499 587.896 428.438L692.104 428.438C696.984 428.441 701.601 426.225 704.651 422.415 707.586 418.784 708.741 414.03 707.799 409.458Z" fill="#FFFFFF"/></g></svg>