<svg width="184" height="183" xmlns="http://www.w3.org/2000/svg" xmlns:xlink="http://www.w3.org/1999/xlink" overflow="hidden"><defs><clipPath id="clip0"><rect x="548" y="317" width="184" height="183"/></clipPath></defs><g clip-path="url(#clip0)" transform="translate(-548 -317)"><path d="M50.5252 26.3348 50.6681 26.6494C51.0112 27.3356 52.0406 27.8503 53.0986 27.8503L114.175 27.8503C115.261 27.8503 116.262 27.3356 116.634 26.5922L116.777 26.2777 116.777 20.2158 116.748 20.1586 116.748 14.4684 116.605 14.1539C116.205 13.3533 115.061 12.9816 114.175 12.9816L99.4777 12.9816C97.762 12.9816 96.1894 12.3525 95.1028 11.2373 94.2736 10.3795 93.8161 9.32156 93.8447 8.235 93.8733 7.46297 93.7589 6.71953 93.5016 5.97609 92.558 3.08813 89.4127 0.743437 85.6383 0.142969 84.9806 0.0571875 84.323 0 83.6653 0 80.7487 0 78.0609 0.943594 76.088 2.63063 74.3723 4.1175 73.4002 6.03328 73.4002 8.03484 73.4002 9.29297 72.9141 10.4367 71.9991 11.3517 70.9697 12.4097 69.5114 12.9816 67.8816 12.9816L53.07 12.9816C51.8977 12.9816 50.8969 13.5248 50.5537 14.3541L50.468 14.6114 50.468 20.5875 50.4966 20.6447 50.4966 26.3348ZM53.0128 70.6552 66.795 70.6552C68.3962 70.6552 69.7116 69.3684 69.7116 67.7386L69.7116 53.985C69.7116 52.3838 68.3962 51.0684 66.795 51.0684L53.0128 51.0684C51.4116 51.0684 50.0963 52.3838 50.0963 53.985L50.0963 67.7386C50.0677 69.3684 51.383 70.6552 53.0128 70.6552ZM55.9294 56.9016 63.8498 56.9016 63.8498 64.7934 55.9294 64.7934 55.9294 56.9016ZM50.0677 95.16C50.0677 96.7613 51.383 98.0766 52.9842 98.0766L66.7664 98.0766C68.3677 98.0766 69.683 96.7613 69.683 95.16L69.683 81.4064C69.683 79.8052 68.3677 78.4898 66.7664 78.4898L52.9842 78.4898C51.383 78.4898 50.0677 79.8052 50.0677 81.4064L50.0677 95.16ZM55.9294 84.323 63.8498 84.323 63.8498 92.2148 55.9294 92.2148 55.9294 84.323ZM69.7116 122.61 69.7116 108.856C69.7116 107.255 68.3962 105.94 66.795 105.94L53.0128 105.94C51.4116 105.94 50.0963 107.255 50.0963 108.856L50.0963 122.61C50.0963 124.211 51.4116 125.527 53.0128 125.527L66.795 125.527C68.3962 125.527 69.7116 124.211 69.7116 122.61ZM63.8498 119.665 55.9294 119.665 55.9294 111.773 63.8498 111.773 63.8498 119.665ZM114.232 57.9309 77.4319 57.9309C75.802 57.9309 74.5153 59.2462 74.5153 60.8475 74.5153 62.4773 75.8306 63.7641 77.4319 63.7641L114.261 63.7641C115.89 63.7641 117.177 62.4487 117.177 60.8475 117.177 59.2462 115.862 57.9309 114.232 57.9309ZM114.232 85.3523 77.4319 85.3523C75.802 85.3523 74.5153 86.6677 74.5153 88.2689 74.5153 89.8988 75.8306 91.1855 77.4319 91.1855L114.261 91.1855C115.89 91.1855 117.177 89.8702 117.177 88.2689 117.177 86.6677 115.862 85.3523 114.232 85.3523ZM117.177 115.719C117.177 114.089 115.862 112.802 114.261 112.802L77.4319 112.802C75.802 112.802 74.5153 114.118 74.5153 115.719 74.5153 117.349 75.8306 118.635 77.4319 118.635L114.261 118.635C115.862 118.635 117.177 117.32 117.177 115.719ZM145.342 124.612C145.285 124.612 145.228 124.583 145.142 124.554 141.939 123.411 138.508 122.782 134.905 122.782 133.962 122.782 133.047 122.81 132.16 122.896 116.834 124.297 104.825 137.221 104.825 152.862 104.825 155.75 105.225 158.581 105.997 161.24 106.054 161.44 106.111 161.612 106.169 161.783 107.427 165.815 109.514 169.504 112.23 172.62 117.72 178.997 125.841 183 134.877 183 151.49 183 165.015 169.475 165.015 152.862 165.015 139.966 156.808 128.901 145.342 124.612ZM152.633 144.227 131.274 165.644C130.702 166.215 129.93 166.501 129.187 166.501 128.443 166.501 127.757 166.273 127.185 165.729L117.234 156.637C116.033 155.521 115.976 153.691 117.063 152.49 118.149 151.318 120.008 151.232 121.18 152.319L129.072 159.553 148.487 140.081C149.631 138.937 151.461 138.937 152.605 140.081 153.777 141.225 153.777 143.083 152.633 144.227Z" fill="#252525" transform="matrix(1.00546 0 0 1 548 317)"/><path d="M101.165 165.329 35.1131 165.329C33.4833 165.329 32.1966 164.014 32.1966 162.412L32.1966 41.6325C32.1966 40.0312 33.4833 38.7159 35.1131 38.7159L132.132 38.7159C133.733 38.7159 135.048 40.0312 135.048 41.6325L135.048 116.92C137.908 116.92 140.738 117.292 143.398 117.949 145.428 118.435 147.372 119.093 149.259 119.951L149.259 31.253C149.259 23.647 143.083 17.4708 135.506 17.4708L121.123 17.4708 121.123 23.3325 121.123 25.9917C121.123 29.423 117.978 32.2252 114.146 32.2252L53.0986 32.2252C49.267 32.2252 46.1217 29.423 46.1217 25.9917L46.1217 23.3325 46.1217 17.4708 31.7391 17.4708C24.1617 17.4708 17.9855 23.647 17.9855 31.253L17.9855 163.899C17.9855 171.477 24.1617 177.624 31.7391 177.624L108.828 177.624C107.141 175.852 105.597 173.879 104.31 171.763 103.052 169.761 102.022 167.588 101.165 165.329Z" fill="#252525" transform="matrix(1.00546 0 0 1 548 317)"/><path d="M54.5283 145.199C52.8984 145.199 51.6117 146.514 51.6117 148.116 51.6117 149.745 52.927 151.032 54.5283 151.032L58.56 151.032C60.1898 151.032 61.4766 149.717 61.4766 148.116 61.4766 146.486 60.1613 145.199 58.56 145.199L54.5283 145.199ZM68.6822 151.061 72.7139 151.061C74.3438 151.061 75.6305 149.745 75.6305 148.144 75.6305 146.514 74.3152 145.228 72.7139 145.228L68.6822 145.228C67.0523 145.228 65.7656 146.543 65.7656 148.144 65.737 149.745 67.0523 151.061 68.6822 151.061ZM82.8361 145.199C81.2062 145.199 79.9195 146.514 79.9195 148.116 79.9195 149.745 81.2348 151.032 82.8361 151.032L86.8678 151.032C88.4977 151.032 89.7844 149.717 89.7844 148.116 89.7844 146.486 88.4691 145.199 86.8678 145.199L82.8361 145.199Z" fill="#252525" transform="matrix(1.00546 0 0 1 548 317)"/></g></svg>